TITLE ""
FILE "P1Q_t_0620-0628.mp3" MP3
  TRACK 01 AUDIO
    TITLE "P1Q_t_0620-0628_01"
    INDEX 01 00:00:00
  TRACK 02 AUDIO
    TITLE "P1Q_t_0620-0628_02"
    INDEX 01 00:01:14
  TRACK 03 AUDIO
    TITLE "P1Q_t_0620-0628_03"
    INDEX 01 00:01:35
  TRACK 04 AUDIO
    TITLE "P1Q_t_0620-0628_04"
    INDEX 01 00:04:28
  TRACK 05 AUDIO
    TITLE "P1Q_t_0620-0628_05"
    INDEX 01 00:04:49
  TRACK 06 AUDIO
    TITLE "P1Q_t_0620-0628_06"
    INDEX 01 00:09:11
  TRACK 07 AUDIO
    TITLE "P1Q_t_0620-0628_07"
    INDEX 01 00:09:56
  TRACK 08 AUDIO
    TITLE "P1Q_t_0620-0628_08"
    INDEX 01 00:10:62
  TRACK 09 AUDIO
    TITLE "P1Q_t_0620-0628_09"
    INDEX 01 00:11:10
  TRACK 10 AUDIO
    TITLE "P1Q_t_0620-0628_10"
    INDEX 01 00:13:42
  TRACK 11 AUDIO
    TITLE "P1Q_t_0620-0628_11"
    INDEX 01 00:13:62
  TRACK 12 AUDIO
    TITLE "P1Q_t_0620-0628_12"
    INDEX 01 00:20:05
  TRACK 13 AUDIO
    TITLE "P1Q_t_0620-0628_13"
    INDEX 01 00:20:50
  TRACK 14 AUDIO
    TITLE "P1Q_t_0620-0628_14"
    INDEX 01 00:21:52
  TRACK 15 AUDIO
    TITLE "P1Q_t_0620-0628_15"
    INDEX 01 00:22:00
  TRACK 16 AUDIO
    TITLE "P1Q_t_0620-0628_16"
    INDEX 01 00:27:35
  TRACK 17 AUDIO
    TITLE "P1Q_t_0620-0628_17"
    INDEX 01 00:27:54
  TRACK 18 AUDIO
    TITLE "P1Q_t_0620-0628_18"
    INDEX 01 00:32:51
  TRACK 19 AUDIO
    TITLE "P1Q_t_0620-0628_19"
    INDEX 01 00:33:23
  TRACK 20 AUDIO
    TITLE "P1Q_t_0620-0628_20"
    INDEX 01 00:34:21
  TRACK 21 AUDIO
    TITLE "P1Q_t_0620-0628_21"
    INDEX 01 00:34:44
  TRACK 22 AUDIO
    TITLE "P1Q_t_0620-0628_22"
    INDEX 01 00:39:73
  TRACK 23 AUDIO
    TITLE "P1Q_t_0620-0628_23"
    INDEX 01 00:40:16
  TRACK 24 AUDIO
    TITLE "P1Q_t_0620-0628_24"
    INDEX 01 00:45:05
  TRACK 25 AUDIO
    TITLE "P1Q_t_0620-0628_25"
    INDEX 01 00:45:52
  TRACK 26 AUDIO
    TITLE "P1Q_t_0620-0628_26"
    INDEX 01 00:46:67
  TRACK 27 AUDIO
    TITLE "P1Q_t_0620-0628_27"
    INDEX 01 00:47:16
  TRACK 28 AUDIO
    TITLE "P1Q_t_0620-0628_28"
    INDEX 01 00:51:68
  TRACK 29 AUDIO
    TITLE "P1Q_t_0620-0628_29"
    INDEX 01 00:52:17
  TRACK 30 AUDIO
    TITLE "P1Q_t_0620-0628_30"
    INDEX 01 00:56:34
  TRACK 31 AUDIO
    TITLE "P1Q_t_0620-0628_31"
    INDEX 01 00:57:08
  TRACK 32 AUDIO
    TITLE "P1Q_t_0620-0628_32"
    INDEX 01 00:58:41
  TRACK 33 AUDIO
    TITLE "P1Q_t_0620-0628_33"
    INDEX 01 00:58:63
  TRACK 34 AUDIO
    TITLE "P1Q_t_0620-0628_34"
    INDEX 01 01:01:10
  TRACK 35 AUDIO
    TITLE "P1Q_t_0620-0628_35"
    INDEX 01 01:01:30
  TRACK 36 AUDIO
    TITLE "P1Q_t_0620-0628_36"
    INDEX 01 01:06:50
  TRACK 37 AUDIO
    TITLE "P1Q_t_0620-0628_37"
    INDEX 01 01:07:22
  TRACK 38 AUDIO
    TITLE "P1Q_t_0620-0628_38"
    INDEX 01 01:08:26
  TRACK 39 AUDIO
    TITLE "P1Q_t_0620-0628_39"
    INDEX 01 01:08:69
  TRACK 40 AUDIO
    TITLE "P1Q_t_0620-0628_40"
    INDEX 01 01:10:01
  TRACK 41 AUDIO
    TITLE "P1Q_t_0620-0628_41"
    INDEX 01 01:10:23
  TRACK 42 AUDIO
    TITLE "P1Q_t_0620-0628_42"
    INDEX 01 01:11:38
  TRACK 43 AUDIO
    TITLE "P1Q_t_0620-0628_43"
    INDEX 01 01:11:57
  TRACK 44 AUDIO
    TITLE "P1Q_t_0620-0628_44"
    INDEX 01 01:16:33
  TRACK 45 AUDIO
    TITLE "P1Q_t_0620-0628_45"
    INDEX 01 01:17:05
  TRACK 46 AUDIO
    TITLE "P1Q_t_0620-0628_46"
    INDEX 01 01:18:22
  TRACK 47 AUDIO
    TITLE "P1Q_t_0620-0628_47"
    INDEX 01 01:18:44
  TRACK 48 AUDIO
    TITLE "P1Q_t_0620-0628_48"
    INDEX 01 01:20:66
  TRACK 49 AUDIO
    TITLE "P1Q_t_0620-0628_49"
    INDEX 01 01:21:11
  TRACK 50 AUDIO
    TITLE "P1Q_t_0620-0628_50"
    INDEX 01 01:26:22
  TRACK 51 AUDIO
    TITLE "P1Q_t_0620-0628_51"
    INDEX 01 01:26:73
  TRACK 52 AUDIO
    TITLE "P1Q_t_0620-0628_52"
    INDEX 01 01:28:15
  TRACK 53 AUDIO
    TITLE "P1Q_t_0620-0628_53"
    INDEX 01 01:28:34
  TRACK 54 AUDIO
    TITLE "P1Q_t_0620-0628_54"
    INDEX 01 01:30:39
  TRACK 55 AUDIO
    TITLE "P1Q_t_0620-0628_55"
    INDEX 01 01:30:59
  TRACK 56 AUDIO
    TITLE "P1Q_t_0620-0628_56"
    INDEX 01 01:34:49
